<svg xmlns="http://www.w3.org/2000/svg" version="1.1" xmlns:xlink="http://www.w3.org/1999/xlink" xmlns:svgjs="http://svgjs.com/svgjs" width="1440" height="320" preserveAspectRatio="none" viewBox="0 0 1440 560"><g mask="url(&quot;#SvgjsMask1006&quot;)" fill="none"><path d="M 0,223 C 57.6,179.8 172.8,5.6 288,7 C 403.2,8.4 460.8,215.2 576,230 C 691.2,244.8 748.8,89.8 864,81 C 979.2,72.2 1036.8,186.6 1152,186 C 1267.2,185.4 1382.4,99.6 1440,78L1440 560L0 560z" fill="rgba(68, 162, 158, 1)"></path><path d="M 0,550 C 96,510 288,375 480,350 C 672,325 768,424.6 960,425 C 1152,425.4 1344,366.6 1440,352L1440 560L0 560z" fill="rgba(73, 197, 182, 1)"></path></g><defs><mask id="SvgjsMask1006"><rect width="1440" height="560" fill="#ffffff"></rect></mask></defs></svg>