<svg xmlns="http://www.w3.org/2000/svg" version="1.1" xmlns:xlink="http://www.w3.org/1999/xlink" xmlns:svgjs="http://svgjs.com/svgjs" width="1600" height="200" preserveAspectRatio="none" viewBox="0 0 1600 200"><g mask="url(&quot;#SvgjsMask1030&quot;)" fill="none"><path d="M 0,13 C 64,24.8 192,65.4 320,72 C 448,78.6 512,40.4 640,46 C 768,51.6 832,106.4 960,100 C 1088,93.6 1152,15.2 1280,14 C 1408,12.8 1536,78 1600,94L1600 200L0 200z" fill="rgb(19, 25, 32)"></path><path d="M 0,145 C 106.8,155 320.4,201.6 534,195 C 747.6,188.4 854.8,111 1068,112 C 1281.2,113 1493.6,182.4 1600,200L1600 200L0 200z" fill="rgb(8, 11, 14)"></path></g><defs><mask id="SvgjsMask1030"><rect width="1600" height="200" fill="#ffffff"></rect></mask></defs></svg>